<svg xmlns="http://www.w3.org/2000/svg" viewBox="0 0 64 64" role="img" aria-label="TechNerd favicon">
  <rect width="64" height="64" rx="14" fill="#081225"/>
  <g fill="none" stroke="#67e8f9" stroke-width="3.5" stroke-linecap="round" stroke-linejoin="round">
    <path d="M20 12 H14 Q10 12 10 16 V24 L6 32 L10 40 V48 Q10 52 14 52 H20"/>
    <path d="M44 12 H50 Q54 12 54 16 V24 L58 32 L54 40 V48 Q54 52 50 52 H44"/>
  </g>
  <g fill="none" stroke="#67e8f9" stroke-width="3" stroke-linecap="round" stroke-linejoin="round">
    <path d="M24 32 H32 V22"/>
    <path d="M32 32 L26 40"/>
    <path d="M32 32 L40 26"/>
    <path d="M32 32 L42 40"/>
  </g>
  <g fill="#081225" stroke="#67e8f9" stroke-width="3">
    <circle cx="24" cy="32" r="4"/>
    <circle cx="32" cy="22" r="4"/>
    <circle cx="26" cy="40" r="4"/>
    <circle cx="40" cy="26" r="4"/>
    <circle cx="42" cy="40" r="4"/>
  </g>
</svg>
