<svg xmlns="http://www.w3.org/2000/svg" viewBox="0 0 160 100" role="img" aria-label="TechNerd bracketed network node mark">
  <g fill="none" stroke="#67e8f9" stroke-width="8" stroke-linecap="round" stroke-linejoin="round">
    <path d="M44 12 H24 Q16 12 16 20 V38 L6 50 L16 62 V80 Q16 88 24 88 H44"/>
    <path d="M116 12 H136 Q144 12 144 20 V38 L154 50 L144 62 V80 Q144 88 136 88 H116"/>
  </g>
  <g fill="none" stroke="#67e8f9" stroke-width="6" stroke-linecap="round" stroke-linejoin="round">
    <path d="M48 50 H72 V26"/>
    <path d="M72 50 L54 68"/>
    <path d="M72 50 L96 32"/>
    <path d="M72 50 L98 68"/>
  </g>
  <g fill="#081225" stroke="#67e8f9" stroke-width="6">
    <circle cx="48" cy="50" r="9"/>
    <circle cx="72" cy="26" r="9"/>
    <circle cx="54" cy="68" r="9"/>
    <circle cx="96" cy="32" r="9"/>
    <circle cx="98" cy="68" r="9"/>
  </g>
</svg>
